<?xml version="1.0" encoding="UTF-8" standalone="no"?>
<svg
   xmlns:dc="http://purl.org/dc/elements/1.1/"
   xmlns:cc="http://creativecommons.org/ns#"
   xmlns:rdf="http://www.w3.org/1999/02/22-rdf-syntax-ns#"
   xmlns:svg="http://www.w3.org/2000/svg"
   xmlns="http://www.w3.org/2000/svg"
   xmlns:sodipodi="http://sodipodi.sourceforge.net/DTD/sodipodi-0.dtd"
   xmlns:inkscape="http://www.inkscape.org/namespaces/inkscape"
   style="isolation:isolate"
   viewBox="0 0 268.402 208.42137"
   width="402.603"
   height="312.63205"
   version="1.1"
   id="svg130"
   sodipodi:docname="calculator.min.svg"
   inkscape:version="0.92.4 (5da689c313, 2019-01-14)">
  <metadata
     id="metadata136">
    <rdf:RDF>
      <cc:Work
         rdf:about="">
        <dc:format>image/svg+xml</dc:format>
        <dc:type
           rdf:resource="http://purl.org/dc/dcmitype/StillImage" />
        <dc:title></dc:title>
      </cc:Work>
    </rdf:RDF>
  </metadata>
  <defs
     id="defs134" />
  <sodipodi:namedview
     pagecolor="#ffffff"
     bordercolor="#666666"
     borderopacity="1"
     objecttolerance="10"
     gridtolerance="10"
     guidetolerance="10"
     inkscape:pageopacity="0"
     inkscape:pageshadow="2"
     inkscape:window-width="1920"
     inkscape:window-height="1018"
     id="namedview132"
     showgrid="false"
     inkscape:zoom="0.52444444"
     inkscape:cx="177.85651"
     inkscape:cy="156.62456"
     inkscape:window-x="-8"
     inkscape:window-y="-8"
     inkscape:window-maximized="1"
     inkscape:current-layer="svg130" />
  <g
     clip-path="url(#a)"
     id="g128"
     transform="translate(-31.428996,-45.995)">
    <linearGradient
       id="b"
       x1="0.579"
       y1="0.028999999"
       x2="0.45100001"
       y2="0.68900001"
       gradientTransform="matrix(121.079,0,0,114.952,178.752,45.995)"
       gradientUnits="userSpaceOnUse">
      <stop
         offset="0%"
         stop-color="#fff"
         id="stop2" />
      <stop
         offset="100%"
         stop-color="#e8ebfb"
         id="stop4" />
    </linearGradient>
    <path
       d="m 212.935,49.805 c -7.774,4.491 -14.398,10.85 -19.763,19.002 -13.609,20.666 -14.411,46.046 -14.42,46.305 l 78.872,45.835 c 0.005,-0.258 0.808,-25.636 14.417,-46.308 5.366,-8.148 11.99,-14.511 19.764,-18.999 a 55.916,55.916 0 0 1 8.026,-3.812 L 220.96,45.995 a 56.047,56.047 0 0 0 -8.025,3.81 z"
       id="path7"
       inkscape:connector-curvature="0"
       style="fill:url(#b)" />
    <clipPath
       id="c">
      <path
         d="M -305,-180 H 361.667 V 486.667 H -305 Z"
         id="path9"
         inkscape:connector-curvature="0"
         style="fill:#ffffff" />
    </clipPath>
    <g
       clip-path="url(#c)"
       id="g14">
      <path
         d="m 251.328,126.406 c 0.125,-0.36 0.26,-0.725 0.393,-1.088 L 193.708,91.604 c -0.132,0.364 -0.268,0.728 -0.396,1.089 z m -3.901,14.486 c 0.076,-0.387 0.156,-0.783 0.24,-1.181 l -58.025,-33.719 c -0.082,0.396 -0.166,0.795 -0.242,1.183 z m 0.898,-4.146 c 0.091,-0.385 0.182,-0.768 0.278,-1.159 l -58.022,-33.716 c -0.097,0.391 -0.188,0.774 -0.278,1.159 z m 1.277,-4.892 c 0.105,-0.372 0.218,-0.751 0.332,-1.127 L 191.915,97.01 c -0.113,0.377 -0.225,0.753 -0.332,1.125 z m 10.278,-23.15 c 0.071,-0.108 0.134,-0.214 0.203,-0.32 0.143,-0.216 0.295,-0.417 0.437,-0.626 L 202.526,74.055 c -0.159,0.233 -0.327,0.456 -0.484,0.693 -0.055,0.086 -0.104,0.168 -0.159,0.252 z m -3.474,5.941 c 0.178,-0.336 0.359,-0.671 0.539,-1.007 L 198.944,79.933 c -0.182,0.336 -0.366,0.669 -0.543,1.004 z m -2.831,5.964 c 0.148,-0.352 0.306,-0.701 0.462,-1.053 L 196.029,85.849 c -0.156,0.35 -0.315,0.698 -0.464,1.05 z M 215.458,60.055 c -0.32,0.25 -0.638,0.508 -0.954,0.765 l 57.973,33.691 c 0.317,-0.262 0.635,-0.516 0.955,-0.767 z m -3.463,2.937 c -0.295,0.272 -0.599,0.529 -0.888,0.807 l 57.978,33.689 c 0.29,-0.275 0.595,-0.531 0.887,-0.801 z m -3.302,3.257 c -0.263,0.281 -0.515,0.582 -0.774,0.87 l 57.987,33.698 c 0.259,-0.288 0.508,-0.594 0.769,-0.874 z m -3.078,3.603 c -0.238,0.298 -0.472,0.601 -0.708,0.908 l 57.992,33.697 c 0.234,-0.304 0.469,-0.607 0.708,-0.907 z"
         id="path12"
         inkscape:connector-curvature="0"
         style="fill:#c5cde0" />
    </g>
    <linearGradient
       id="d"
       x1="0.454"
       y1="0.182"
       x2="0.58999997"
       y2="0.49900001"
       gradientTransform="matrix(232.549,0,0,134.796,31.437,108.264)"
       gradientUnits="userSpaceOnUse">
      <stop
         offset="0%"
         stop-color="#fff"
         id="stop16" />
      <stop
         offset="100%"
         stop-color="#e8ebfb"
         id="stop18" />
    </linearGradient>
    <path
       d="M 167.537,109.637 33.781,187.369 c -3.14,1.824 -3.124,4.782 0.038,6.607 l 82.64,47.712 c 3.17,1.829 8.276,1.829 11.418,0.005 l 133.756,-77.73 c 3.151,-1.831 3.135,-4.788 -0.036,-6.62 l -82.642,-47.712 c -1.579,-0.911 -3.643,-1.367 -5.706,-1.367 -2.068,0 -4.134,0.457 -5.712,1.373 z"
       id="path21"
       inkscape:connector-curvature="0"
       style="fill:url(#d)" />
    <linearGradient
       id="e"
       x1="0.84399998"
       y1="-0.43399999"
       x2="0.15099999"
       y2="-0.21699999"
       gradientTransform="matrix(232.558,0,0,93.741,31.429,160.675)"
       gradientUnits="userSpaceOnUse">
      <stop
         offset="0%"
         stop-color="#e8ebfb"
         id="stop23" />
      <stop
         offset="100%"
         stop-color="#ced4ed"
         id="stop25" />
    </linearGradient>
    <path
       d="m 261.633,163.963 -133.756,77.73 c -3.142,1.824 -8.248,1.824 -11.418,-0.005 l -82.64,-47.712 c -1.592,-0.921 -2.387,-2.125 -2.382,-3.329 -0.017,5.818 0.011,5.537 -0.008,11.354 -0.002,1.206 0.792,2.411 2.384,3.328 l 82.64,47.714 c 3.172,1.829 8.276,1.832 11.418,0.004 l 133.757,-77.731 c 1.565,-0.909 2.348,-2.099 2.351,-3.285 0.018,-5.818 -0.01,-5.538 0.008,-11.356 -0.006,1.192 -0.79,2.378 -2.354,3.288 z"
       id="path28"
       inkscape:connector-curvature="0"
       style="fill:url(#e)" />
    <clipPath
       id="f">
      <path
         d="M -305,-180 H 361.667 V 486.667 H -305 Z"
         id="path30"
         inkscape:connector-curvature="0"
         style="fill:#ffffff" />
    </clipPath>
    <g
       clip-path="url(#f)"
       id="g35">
      <path
         d="m 261.633,163.962 -133.755,77.731 c -3.144,1.825 -8.248,1.825 -11.419,-0.005 l -82.64,-47.712 c -1.593,-0.922 -2.386,-2.126 -2.381,-3.328 -0.004,0.637 -0.005,1.277 -0.008,1.913 0.108,1.113 0.867,2.208 2.34,3.059 l 82.639,47.712 c 3.172,1.83 8.276,1.832 11.418,0.005 l 133.756,-77.729 c 1.566,-0.91 2.35,-2.098 2.352,-3.288 0.003,-0.458 0.003,-0.916 0.004,-1.374 -0.112,1.099 -0.861,2.178 -2.306,3.016 z"
         id="path33"
         inkscape:connector-curvature="0"
         style="fill:#ffffff" />
    </g>
    <linearGradient
       id="g"
       x1="0.54699999"
       y1="0.103"
       x2="0.45199999"
       y2="0.373"
       gradientTransform="matrix(104.611,0,0,60.501,143.953,117.197)"
       gradientUnits="userSpaceOnUse">
      <stop
         offset="0%"
         stop-color="#385ea8"
         id="stop37" />
      <stop
         offset="100%"
         stop-color="#213763"
         id="stop39" />
    </linearGradient>
    <path
       d="m 168.083,117.924 -22.887,13.3 c -1.667,0.969 -1.656,2.536 0.028,3.511 l 73.153,42.232 c 1.676,0.97 4.394,0.976 6.058,0.008 l 22.889,-13.303 c 1.668,-0.968 1.649,-2.54 -0.028,-3.507 l -73.153,-42.238 c -0.844,-0.487 -1.944,-0.73 -3.04,-0.73 -1.095,0 -2.187,0.242 -3.02,0.727 z"
       id="path42"
       inkscape:connector-curvature="0"
       style="fill:url(#g)" />
    <clipPath
       id="h">
      <path
         d="M -305,-180 H 361.667 V 486.667 H -305 Z"
         id="path44"
         inkscape:connector-curvature="0"
         style="fill:#ffffff" />
    </clipPath>
    <g
       clip-path="url(#h)"
       id="g81">
      <path
         d="m 145.168,132.681 22.889,-13.301 c 1.667,-0.968 4.372,-0.968 6.059,0.005 l 73.152,42.235 c 0.532,0.308 0.876,0.676 1.073,1.066 0.476,-0.861 0.135,-1.84 -1.044,-2.522 l -73.154,-42.236 c -1.687,-0.974 -4.392,-0.974 -6.059,-0.004 l -22.888,13.3 c -1.141,0.662 -1.476,1.601 -1.048,2.445 0.2,-0.361 0.528,-0.701 1.02,-0.988 z"
         id="path47"
         inkscape:connector-curvature="0"
         style="fill:#233a69" />
      <path
         d="m 119.32,149.788 13.451,7.766 c 1.677,0.97 4.384,0.97 6.049,0 l 6.284,-3.653 c 1.678,-0.972 1.667,-2.541 -0.01,-3.508 l -13.451,-7.765 c -1.685,-0.976 -4.393,-0.976 -6.068,0 l -6.283,3.65 c -1.666,0.97 -1.658,2.538 0.028,3.51 z"
         id="path49"
         inkscape:connector-curvature="0"
         style="fill:#c764a6" />
      <path
         d="m 103.493,158.986 13.452,7.764 c 1.678,0.97 4.394,0.965 6.06,-0.004 l 6.282,-3.651 c 1.666,-0.967 1.656,-2.536 -0.02,-3.504 l -13.452,-7.767 c -1.686,-0.974 -4.392,-0.974 -6.058,-0.006 l -6.284,3.652 c -1.666,0.968 -1.666,2.541 0.02,3.516 z"
         id="path51"
         inkscape:connector-curvature="0"
         style="fill:#33569a" />
      <path
         d="m 142.104,162.943 13.451,7.765 c 1.677,0.969 4.384,0.969 6.049,0 l 6.284,-3.652 c 1.675,-0.973 1.667,-2.54 -0.011,-3.509 l -13.452,-7.767 c -1.685,-0.973 -4.392,-0.973 -6.066,0 l -6.283,3.651 c -1.667,0.97 -1.66,2.537 0.028,3.512 z"
         id="path53"
         inkscape:connector-curvature="0"
         style="fill:#c764a6" />
      <path
         d="m 87.676,168.177 13.45,7.767 c 1.679,0.968 4.386,0.968 6.051,0 l 6.293,-3.658 c 1.666,-0.969 1.658,-2.533 -0.021,-3.505 l -13.452,-7.764 c -1.684,-0.975 -4.391,-0.975 -6.057,-0.007 l -6.292,3.659 c -1.667,0.967 -1.659,2.535 0.028,3.508 z m -15.817,9.193 13.451,7.765 c 1.677,0.969 4.383,0.969 6.049,0 l 6.295,-3.656 c 1.664,-0.968 1.656,-2.537 -0.021,-3.504 l -13.451,-7.767 c -1.687,-0.974 -4.393,-0.974 -6.06,-0.005 l -6.292,3.656 c -1.665,0.971 -1.659,2.537 0.029,3.511 z m 67.87,2.535 c 1.678,0.968 4.392,0.964 6.059,-0.005 l 6.283,-3.652 c 1.666,-0.968 1.657,-2.535 -0.02,-3.503 l -13.452,-7.767 c -1.687,-0.972 -4.394,-0.972 -6.058,-0.004 l -6.284,3.651 c -1.666,0.968 -1.666,2.54 0.019,3.515 z"
         id="path55"
         inkscape:connector-curvature="0"
         style="fill:#33569a" />
      <path
         d="m 164.887,176.095 13.452,7.765 c 1.677,0.971 4.382,0.971 6.049,0 l 6.284,-3.649 c 1.675,-0.975 1.667,-2.541 -0.012,-3.511 l -13.451,-7.762 c -1.685,-0.978 -4.392,-0.978 -6.068,0 l -6.284,3.648 c -1.665,0.969 -1.657,2.537 0.03,3.509 z"
         id="path57"
         inkscape:connector-curvature="0"
         style="fill:#c764a6" />
      <path
         d="m 116.724,174.164 -6.295,3.656 c -1.665,0.971 -1.656,2.539 0.03,3.511 l 13.452,7.766 c 1.677,0.968 4.384,0.968 6.05,0 l 6.291,-3.656 c 1.667,-0.969 1.66,-2.536 -0.02,-3.505 l -13.451,-7.765 c -1.686,-0.975 -4.392,-0.975 -6.057,-0.007 z"
         id="path59"
         inkscape:connector-curvature="0"
         style="fill:#33569a" />
      <path
         d="m 204.796,184.863 -4.804,-2.776 c -1.684,-0.97 -4.391,-0.97 -6.067,0 l -6.284,3.652 c -1.665,0.97 -1.656,2.538 0.028,3.512 l 4.805,2.772 c 1.678,0.97 4.391,0.972 6.059,0.004 l 6.283,-3.65 c 1.674,-0.975 1.657,-2.547 -0.02,-3.514 z"
         id="path61"
         inkscape:connector-curvature="0"
         style="fill:#c764a6" />
      <path
         d="m 168.57,193.055 6.284,-3.652 c 1.667,-0.967 1.656,-2.538 -0.021,-3.504 l -13.451,-7.767 c -1.685,-0.972 -4.393,-0.972 -6.057,-0.005 l -6.283,3.652 c -1.666,0.966 -1.666,2.538 0.018,3.514 l 13.453,7.764 c 1.677,0.97 4.391,0.967 6.057,-0.002 z"
         id="path63"
         inkscape:connector-curvature="0"
         style="fill:#33569a" />
      <path
         d="m 81.815,187.165 -13.451,-7.764 c -1.686,-0.974 -4.404,-0.969 -6.069,0 l -6.284,3.652 c -1.665,0.967 -1.657,2.535 0.031,3.508 l 13.45,7.768 c 1.676,0.967 4.384,0.967 6.05,0 l 6.284,-3.652 c 1.666,-0.968 1.666,-2.54 -0.011,-3.512 z"
         id="path65"
         inkscape:connector-curvature="0"
         style="fill:#c764a6" />
      <path
         d="m 100.906,183.357 -6.293,3.657 c -1.665,0.968 -1.657,2.537 0.031,3.509 l 13.45,7.768 c 1.676,0.967 4.384,0.967 6.05,0 l 6.292,-3.658 c 1.665,-0.968 1.658,-2.534 -0.019,-3.506 l -13.452,-7.765 c -1.687,-0.973 -4.392,-0.973 -6.059,-0.005 z"
         id="path67"
         inkscape:connector-curvature="0"
         style="fill:#33569a" />
      <path
         d="m 188.969,194.06 -4.804,-2.775 c -1.686,-0.973 -4.391,-0.973 -6.058,-0.004 l -6.282,3.652 c -1.666,0.97 -1.666,2.542 0.018,3.515 l 4.804,2.772 c 1.678,0.971 4.403,0.971 6.067,0 l 6.283,-3.652 c 1.666,-0.967 1.649,-2.541 -0.028,-3.508 z"
         id="path69"
         inkscape:connector-curvature="0"
         style="fill:#c764a6" />
      <path
         d="m 152.742,202.251 6.295,-3.654 c 1.666,-0.971 1.657,-2.539 -0.02,-3.506 l -13.452,-7.766 c -1.686,-0.975 -4.394,-0.975 -6.06,-0.004 l -6.291,3.656 c -1.667,0.966 -1.659,2.536 0.028,3.509 l 13.451,7.765 c 1.677,0.971 4.385,0.971 6.049,0 z m -48.143,-1.931 -13.453,-7.766 c -1.686,-0.972 -4.402,-0.968 -6.067,0 l -6.285,3.653 c -1.664,0.968 -1.656,2.536 0.029,3.509 l 13.453,7.766 c 1.678,0.969 4.384,0.969 6.05,0 l 6.282,-3.651 c 1.666,-0.968 1.668,-2.541 -0.009,-3.511 z"
         id="path71"
         inkscape:connector-curvature="0"
         style="fill:#33569a" />
      <path
         d="m 173.151,203.253 -4.803,-2.775 c -1.685,-0.973 -4.392,-0.973 -6.058,-0.004 l -6.292,3.656 c -1.667,0.968 -1.658,2.537 0.028,3.509 l 4.802,2.774 c 1.678,0.966 4.394,0.976 6.06,0.005 l 6.291,-3.656 c 1.667,-0.969 1.649,-2.54 -0.028,-3.509 z"
         id="path73"
         inkscape:connector-curvature="0"
         style="fill:#c764a6" />
      <path
         d="m 117.426,203.678 13.452,7.764 c 1.676,0.97 4.382,0.97 6.049,0 l 6.292,-3.656 c 1.667,-0.968 1.656,-2.536 -0.021,-3.504 l -13.451,-7.768 c -1.685,-0.972 -4.392,-0.972 -6.059,-0.002 l -6.292,3.654 c -1.665,0.972 -1.657,2.538 0.03,3.512 z"
         id="path75"
         inkscape:connector-curvature="0"
         style="fill:#33569a" />
      <path
         d="m 127.381,213.474 -13.452,-7.764 c -1.685,-0.977 -4.401,-0.968 -6.068,0 l -6.284,3.651 c -1.665,0.966 -1.656,2.536 0.03,3.506 l 13.452,7.77 c 1.676,0.97 4.385,0.966 6.049,0 l 6.285,-3.652 c 1.666,-0.968 1.667,-2.542 -0.012,-3.511 z"
         id="path77"
         inkscape:connector-curvature="0"
         style="fill:#339a7f" />
      <path
         d="m 157.333,212.443 -4.802,-2.771 c -1.687,-0.976 -4.392,-0.976 -6.059,-0.008 l -22.111,12.852 c -1.666,0.965 -1.658,2.536 0.03,3.508 l 4.802,2.773 c 1.678,0.967 4.392,0.971 6.059,0.004 l 22.109,-12.848 c 1.667,-0.968 1.651,-2.54 -0.028,-3.51 z"
         id="path79"
         inkscape:connector-curvature="0"
         style="fill:#84c956" />
    </g>
    <g
       id="g90">
      <linearGradient
         id="i"
         x1="0.5"
         y1="-2.585"
         x2="0.5"
         y2="0.46200001"
         gradientTransform="matrix(7.94,0,0,16.228,61.895,137.68)"
         gradientUnits="userSpaceOnUse">
        <stop
           offset="0%"
           stop-color="#fc0"
           id="stop83" />
        <stop
           offset="100%"
           stop-color="#fc8b00"
           id="stop85" />
      </linearGradient>
      <path
         d="m 61.895,142.247 0.034,11.661 7.906,-4.567 -0.034,-11.661 z"
         id="path88"
         inkscape:connector-curvature="0"
         style="fill:url(#i)" />
    </g>
    <g
       id="g99">
      <linearGradient
         id="j"
         x1="0.5"
         y1="-0.32300001"
         x2="0.5"
         y2="0.991"
         gradientTransform="matrix(8.009,0,0,37.627,76.355,107.897)"
         gradientUnits="userSpaceOnUse">
        <stop
           offset="0%"
           stop-color="#385ea8"
           id="stop92" />
        <stop
           offset="100%"
           stop-color="#213763"
           id="stop94" />
      </linearGradient>
      <path
         d="m 76.355,112.465 0.093,33.059 7.916,-4.571 -0.093,-33.056 z"
         id="path97"
         inkscape:connector-curvature="0"
         style="fill:url(#j)" />
    </g>
    <g
       id="g108">
      <linearGradient
         id="k"
         x1="0.5"
         y1="-1.207"
         x2="0.5"
         y2="1.429"
         gradientTransform="matrix(7.945,0,0,18.755,90.94,118.38)"
         gradientUnits="userSpaceOnUse">
        <stop
           offset="0%"
           stop-color="#fc0"
           id="stop101" />
        <stop
           offset="100%"
           stop-color="#fc8b00"
           id="stop103" />
      </linearGradient>
      <path
         d="m 90.94,122.943 0.04,14.192 7.905,-4.566 -0.038,-14.189 z"
         id="path106"
         inkscape:connector-curvature="0"
         style="fill:url(#k)" />
    </g>
    <g
       id="g117">
      <linearGradient
         id="l"
         x1="0.5"
         y1="0.123"
         x2="0.5"
         y2="1.437"
         gradientTransform="matrix(8.01,0,0,37.626,105.407,91.123)"
         gradientUnits="userSpaceOnUse">
        <stop
           offset="0%"
           stop-color="#385ea8"
           id="stop110" />
        <stop
           offset="100%"
           stop-color="#213763"
           id="stop112" />
      </linearGradient>
      <path
         d="m 105.407,95.696 0.093,33.053 7.917,-4.569 -0.094,-33.057 z"
         id="path115"
         inkscape:connector-curvature="0"
         style="fill:url(#l)" />
    </g>
    <g
       id="g126">
      <linearGradient
         id="m"
         x1="0.5"
         y1="0.56199998"
         x2="0.5"
         y2="1.441"
         gradientTransform="matrix(8.053,0,0,56.256,119.884,64.105)"
         gradientUnits="userSpaceOnUse">
        <stop
           offset="0%"
           stop-color="#fc0"
           id="stop119" />
        <stop
           offset="100%"
           stop-color="#fc8b00"
           id="stop121" />
      </linearGradient>
      <path
         d="m 119.884,68.669 0.148,51.692 7.905,-4.565 -0.146,-51.691 z"
         id="path124"
         inkscape:connector-curvature="0"
         style="fill:url(#m)" />
    </g>
  </g>
</svg>
