<svg xmlns="http://www.w3.org/2000/svg" xmlns:xlink="http://www.w3.org/1999/xlink" style="isolation:isolate" viewBox="0 0 300 300" width="450" height="450">
    <defs>
        <clipPath id="_clipPath_IbdYcq3ZUMkxUJQY9fUqjbraBRdkI58V"><rect width="300" height="300"/></clipPath></defs><g clip-path="url(#_clipPath_IbdYcq3ZUMkxUJQY9fUqjbraBRdkI58V)"><g><linearGradient id="_lgradient_4" x1="0.5794319946260837" y1="0.028783492240239905" x2="0.45088082679029684" y2="0.6888818678945428" gradientTransform="matrix(121.079,0,0,114.952,178.752,45.995)" gradientUnits="userSpaceOnUse"><stop offset="0%" stop-opacity="1" style="stop-color:rgb(255,255,255)"/><stop offset="100%" stop-opacity="1" style="stop-color:rgb(232,235,251)"/></linearGradient><path d=" M 212.935 49.805 C 205.161 54.296 198.537 60.655 193.172 68.807 L 193.172 68.807 C 179.563 89.473 178.761 114.853 178.752 115.112 L 178.752 115.112 L 257.624 160.947 C 257.629 160.689 258.432 135.311 272.041 114.639 L 272.041 114.639 C 277.407 106.491 284.031 100.128 291.805 95.64 L 291.805 95.64 C 294.357 94.167 297.033 92.896 299.831 91.828 L 299.831 91.828 L 220.96 45.995 C 218.164 47.063 215.488 48.332 212.935 49.805 Z " fill="url(#_lgradient_4)"/></g><g><clipPath id="_clipPath_uuWvtOg1EulvTSJs06T4z40oJJhrntIE"><path d=" M -305 -180 L 361.667 -180 L 361.667 486.667 L -305 486.667 L -305 -180 Z " fill="rgb(255,255,255)"/></clipPath><g clip-path="url(#_clipPath_uuWvtOg1EulvTSJs06T4z40oJJhrntIE)"><g><g><g><path d=" M 251.328 126.406 C 251.453 126.046 251.588 125.681 251.721 125.318 L 193.708 91.604 C 193.576 91.968 193.44 92.332 193.312 92.693 L 251.328 126.406 Z " fill="rgb(197,205,224)"/></g><g><path d=" M 247.427 140.892 C 247.503 140.505 247.583 140.109 247.667 139.711 L 189.642 105.992 C 189.56 106.388 189.476 106.787 189.4 107.175 L 247.427 140.892 Z " fill="rgb(197,205,224)"/></g><g><path d=" M 248.325 136.746 C 248.416 136.361 248.507 135.978 248.603 135.587 L 190.581 101.871 C 190.484 102.262 190.393 102.645 190.303 103.03 L 248.325 136.746 Z " fill="rgb(197,205,224)"/></g><g><path d=" M 249.602 131.854 C 249.707 131.482 249.82 131.103 249.934 130.727 L 191.915 97.01 C 191.802 97.387 191.69 97.763 191.583 98.135 L 249.602 131.854 Z " fill="rgb(197,205,224)"/></g><g><path d=" M 259.88 108.704 C 259.951 108.596 260.014 108.49 260.083 108.384 C 260.226 108.168 260.378 107.967 260.52 107.758 L 202.526 74.055 C 202.367 74.288 202.199 74.511 202.042 74.748 C 201.987 74.834 201.938 74.916 201.883 75 L 259.88 108.704 Z " fill="rgb(197,205,224)"/></g><g><path d=" M 256.406 114.645 C 256.584 114.309 256.765 113.974 256.945 113.638 L 198.944 79.933 C 198.762 80.269 198.578 80.602 198.401 80.937 L 256.406 114.645 Z " fill="rgb(197,205,224)"/></g><g><path d=" M 253.575 120.609 C 253.723 120.257 253.881 119.908 254.037 119.556 L 196.029 85.849 C 195.873 86.199 195.714 86.547 195.565 86.899 L 253.575 120.609 Z " fill="rgb(197,205,224)"/></g><g><path d=" M 215.458 60.055 C 215.138 60.305 214.82 60.563 214.504 60.82 L 272.477 94.511 C 272.794 94.249 273.112 93.995 273.432 93.744 L 215.458 60.055 Z " fill="rgb(197,205,224)"/></g><g><path d=" M 211.995 62.992 C 211.7 63.264 211.396 63.521 211.107 63.799 L 269.085 97.488 C 269.375 97.213 269.68 96.957 269.972 96.687 L 211.995 62.992 Z " fill="rgb(197,205,224)"/></g><g><path d=" M 208.693 66.249 C 208.43 66.53 208.178 66.831 207.919 67.119 L 265.906 100.817 C 266.165 100.529 266.414 100.223 266.675 99.943 L 208.693 66.249 Z " fill="rgb(197,205,224)"/></g><g><path d=" M 205.615 69.852 C 205.377 70.15 205.143 70.453 204.907 70.76 L 262.899 104.457 C 263.133 104.153 263.368 103.85 263.607 103.55 L 205.615 69.852 Z " fill="rgb(197,205,224)"/></g></g></g></g></g><g><linearGradient id="_lgradient_5" x1="0.45449450530357405" y1="0.18239605638438494" x2="0.5895273633411551" y2="0.4990410263710415" gradientTransform="matrix(232.549,0,0,134.796,31.437,108.264)" gradientUnits="userSpaceOnUse"><stop offset="0%" stop-opacity="1" style="stop-color:rgb(255,255,255)"/><stop offset="100%" stop-opacity="1" style="stop-color:rgb(232,235,251)"/></linearGradient><path d=" M 167.537 109.637 L 33.781 187.369 C 30.641 189.193 30.657 192.151 33.819 193.976 L 33.819 193.976 L 116.459 241.688 C 119.629 243.517 124.735 243.517 127.877 241.693 L 127.877 241.693 L 261.633 163.963 C 264.784 162.132 264.768 159.175 261.597 157.343 L 261.597 157.343 L 178.955 109.631 C 177.376 108.72 175.312 108.264 173.249 108.264 L 173.249 108.264 C 171.181 108.264 169.115 108.721 167.537 109.637 Z " fill="url(#_lgradient_5)"/></g><g><linearGradient id="_lgradient_6" x1="0.8442733434363792" y1="-0.43358124595353686" x2="0.15089740443415112" y2="-0.21687308830726618" gradientTransform="matrix(232.558,0,0,93.741,31.429,160.675)" gradientUnits="userSpaceOnUse"><stop offset="0%" stop-opacity="1" style="stop-color:rgb(232,235,251)"/><stop offset="100%" stop-opacity="1" style="stop-color:rgb(206,212,237)"/></linearGradient><path d=" M 261.633 163.963 L 127.877 241.693 C 124.735 243.517 119.629 243.517 116.459 241.688 L 116.459 241.688 L 33.819 193.976 C 32.227 193.055 31.432 191.851 31.437 190.647 L 31.437 190.647 C 31.42 196.465 31.448 196.184 31.429 202.001 L 31.429 202.001 C 31.427 203.207 32.221 204.412 33.813 205.329 L 33.813 205.329 L 116.453 253.043 C 119.625 254.872 124.729 254.875 127.871 253.047 L 127.871 253.047 L 261.628 175.316 C 263.193 174.407 263.976 173.217 263.979 172.031 L 263.979 172.031 C 263.997 166.213 263.969 166.493 263.987 160.675 L 263.987 160.675 C 263.981 161.867 263.197 163.053 261.633 163.963 Z " fill="url(#_lgradient_6)"/></g><g><clipPath id="_clipPath_Fn2EwdADrswrPlS4ynyrfSWYxxAO6ejF"><path d=" M -305 -180 L 361.667 -180 L 361.667 486.667 L -305 486.667 L -305 -180 Z " fill="rgb(255,255,255)"/></clipPath><g clip-path="url(#_clipPath_Fn2EwdADrswrPlS4ynyrfSWYxxAO6ejF)"><g><g><g><path d=" M 261.633 163.962 L 127.878 241.693 C 124.734 243.518 119.63 243.518 116.459 241.688 L 33.819 193.976 C 32.226 193.054 31.433 191.85 31.438 190.648 C 31.434 191.285 31.433 191.925 31.43 192.561 C 31.538 193.674 32.297 194.769 33.77 195.62 L 116.409 243.332 C 119.581 245.162 124.685 245.164 127.827 243.337 L 261.583 165.608 C 263.149 164.698 263.933 163.51 263.935 162.32 C 263.938 161.862 263.938 161.404 263.939 160.946 C 263.827 162.045 263.078 163.124 261.633 163.962 Z " fill="rgb(255,255,255)"/></g></g></g></g></g><g><linearGradient id="_lgradient_7" x1="0.5470341484587635" y1="0.10295349770297424" x2="0.4515221016245725" y2="0.3725689980697418" gradientTransform="matrix(104.611,0,0,60.501,143.953,117.197)" gradientUnits="userSpaceOnUse"><stop offset="0%" stop-opacity="1" style="stop-color:rgb(56,94,168)"/><stop offset="100%" stop-opacity="1" style="stop-color:rgb(33,55,99)"/></linearGradient><path d=" M 168.083 117.924 L 145.196 131.224 C 143.529 132.193 143.54 133.76 145.224 134.735 L 145.224 134.735 L 218.377 176.967 C 220.053 177.937 222.771 177.943 224.435 176.975 L 224.435 176.975 L 247.324 163.672 C 248.992 162.704 248.973 161.132 247.296 160.165 L 247.296 160.165 L 174.143 117.927 C 173.299 117.44 172.199 117.197 171.103 117.197 L 171.103 117.197 C 170.008 117.197 168.916 117.439 168.083 117.924 Z " fill="url(#_lgradient_7)"/></g><g><clipPath id="_clipPath_mdUY4CBmhr3CChDjscy3voDKcHbk5bGx"><path d=" M -305 -180 L 361.667 -180 L 361.667 486.667 L -305 486.667 L -305 -180 Z " fill="rgb(255,255,255)"/></clipPath><g clip-path="url(#_clipPath_mdUY4CBmhr3CChDjscy3voDKcHbk5bGx)"><g><g><g><path d=" M 145.168 132.681 L 168.057 119.38 C 169.724 118.412 172.429 118.412 174.116 119.385 L 247.268 161.62 C 247.8 161.928 248.144 162.296 248.341 162.686 C 248.817 161.825 248.476 160.846 247.297 160.164 L 174.143 117.928 C 172.456 116.954 169.751 116.954 168.084 117.924 L 145.196 131.224 C 144.055 131.886 143.72 132.825 144.148 133.669 C 144.348 133.308 144.676 132.968 145.168 132.681 Z " fill="rgb(35,58,105)"/></g><g><path d=" M 119.32 149.788 L 132.771 157.554 C 134.448 158.524 137.155 158.524 138.82 157.554 L 145.104 153.901 C 146.782 152.929 146.771 151.36 145.094 150.393 L 131.643 142.628 C 129.958 141.652 127.25 141.652 125.575 142.628 L 119.292 146.278 C 117.626 147.248 117.634 148.816 119.32 149.788 Z " fill="rgb(199,100,166)"/></g><g><path d=" M 103.493 158.986 L 116.945 166.75 C 118.623 167.72 121.339 167.715 123.005 166.746 L 129.287 163.095 C 130.953 162.128 130.943 160.559 129.267 159.591 L 115.815 151.824 C 114.129 150.85 111.423 150.85 109.757 151.818 L 103.473 155.47 C 101.807 156.438 101.807 158.011 103.493 158.986 Z " fill="rgb(51,86,154)"/></g><g><path d=" M 142.104 162.943 L 155.555 170.708 C 157.232 171.677 159.939 171.677 161.604 170.708 L 167.888 167.056 C 169.563 166.083 169.555 164.516 167.877 163.547 L 154.425 155.78 C 152.74 154.807 150.033 154.807 148.359 155.78 L 142.076 159.431 C 140.409 160.401 140.416 161.968 142.104 162.943 Z " fill="rgb(199,100,166)"/></g><g><path d=" M 87.676 168.177 L 101.126 175.944 C 102.805 176.912 105.512 176.912 107.177 175.944 L 113.47 172.286 C 115.136 171.317 115.128 169.753 113.449 168.781 L 99.997 161.017 C 98.313 160.042 95.606 160.042 93.94 161.01 L 87.648 164.669 C 85.981 165.636 85.989 167.204 87.676 168.177 Z " fill="rgb(51,86,154)"/></g><g><path d=" M 71.859 177.37 L 85.31 185.135 C 86.987 186.104 89.693 186.104 91.359 185.135 L 97.654 181.479 C 99.318 180.511 99.31 178.942 97.633 177.975 L 84.182 170.208 C 82.495 169.234 79.789 169.234 78.122 170.203 L 71.83 173.859 C 70.165 174.83 70.171 176.396 71.859 177.37 Z " fill="rgb(51,86,154)"/></g><g><path d=" M 139.729 179.905 C 141.407 180.873 144.121 180.869 145.788 179.9 L 152.071 176.248 C 153.737 175.28 153.728 173.713 152.051 172.745 L 138.599 164.978 C 136.912 164.006 134.205 164.006 132.541 164.974 L 126.257 168.625 C 124.591 169.593 124.591 171.165 126.276 172.14 L 139.729 179.905 Z " fill="rgb(51,86,154)"/></g><g><path d=" M 164.887 176.095 L 178.339 183.86 C 180.016 184.831 182.721 184.831 184.388 183.86 L 190.672 180.211 C 192.347 179.236 192.339 177.67 190.66 176.7 L 177.209 168.938 C 175.524 167.96 172.817 167.96 171.141 168.938 L 164.857 172.586 C 163.192 173.555 163.2 175.123 164.887 176.095 Z " fill="rgb(199,100,166)"/></g><g><path d=" M 116.724 174.164 L 110.429 177.82 C 108.764 178.791 108.773 180.359 110.459 181.331 L 123.911 189.097 C 125.588 190.065 128.295 190.065 129.961 189.097 L 136.252 185.441 C 137.919 184.472 137.912 182.905 136.232 181.936 L 122.781 174.171 C 121.095 173.196 118.389 173.196 116.724 174.164 Z " fill="rgb(51,86,154)"/></g><g><path d=" M 204.796 184.863 L 199.992 182.087 C 198.308 181.117 195.601 181.117 193.925 182.087 L 187.641 185.739 C 185.976 186.709 185.985 188.277 187.669 189.251 L 192.474 192.023 C 194.152 192.993 196.865 192.995 198.533 192.027 L 204.816 188.377 C 206.49 187.402 206.473 185.83 204.796 184.863 Z " fill="rgb(199,100,166)"/></g><g><path d=" M 168.57 193.055 L 174.854 189.403 C 176.521 188.436 176.51 186.865 174.833 185.899 L 161.382 178.132 C 159.697 177.16 156.989 177.16 155.325 178.127 L 149.042 181.779 C 147.376 182.745 147.376 184.317 149.06 185.293 L 162.513 193.057 C 164.19 194.027 166.904 194.024 168.57 193.055 Z " fill="rgb(51,86,154)"/></g><g><path d=" M 81.815 187.165 L 68.364 179.401 C 66.678 178.427 63.96 178.432 62.295 179.401 L 56.011 183.053 C 54.346 184.02 54.354 185.588 56.042 186.561 L 69.492 194.329 C 71.168 195.296 73.876 195.296 75.542 194.329 L 81.826 190.677 C 83.492 189.709 83.492 188.137 81.815 187.165 Z " fill="rgb(199,100,166)"/></g><g><path d=" M 100.906 183.357 L 94.613 187.014 C 92.948 187.982 92.956 189.551 94.644 190.523 L 108.094 198.291 C 109.77 199.258 112.478 199.258 114.144 198.291 L 120.436 194.633 C 122.101 193.665 122.094 192.099 120.417 191.127 L 106.965 183.362 C 105.278 182.389 102.573 182.389 100.906 183.357 Z " fill="rgb(51,86,154)"/></g><g><path d=" M 188.969 194.06 L 184.165 191.285 C 182.479 190.312 179.774 190.312 178.107 191.281 L 171.825 194.933 C 170.159 195.903 170.159 197.475 171.843 198.448 L 176.647 201.22 C 178.325 202.191 181.05 202.191 182.714 201.22 L 188.997 197.568 C 190.663 196.601 190.646 195.027 188.969 194.06 Z " fill="rgb(199,100,166)"/></g><g><path d=" M 152.742 202.251 L 159.037 198.597 C 160.703 197.626 160.694 196.058 159.017 195.091 L 145.565 187.325 C 143.879 186.35 141.171 186.35 139.505 187.321 L 133.214 190.977 C 131.547 191.943 131.555 193.513 133.242 194.486 L 146.693 202.251 C 148.37 203.222 151.078 203.222 152.742 202.251 Z " fill="rgb(51,86,154)"/></g><g><path d=" M 104.599 200.32 L 91.146 192.554 C 89.46 191.582 86.744 191.586 85.079 192.554 L 78.794 196.207 C 77.13 197.175 77.138 198.743 78.823 199.716 L 92.276 207.482 C 93.954 208.451 96.66 208.451 98.326 207.482 L 104.608 203.831 C 106.274 202.863 106.276 201.29 104.599 200.32 Z " fill="rgb(51,86,154)"/></g><g><path d=" M 173.151 203.253 L 168.348 200.478 C 166.663 199.505 163.956 199.505 162.29 200.474 L 155.998 204.13 C 154.331 205.098 154.34 206.667 156.026 207.639 L 160.828 210.413 C 162.506 211.379 165.222 211.389 166.888 210.418 L 173.179 206.762 C 174.846 205.793 174.828 204.222 173.151 203.253 Z " fill="rgb(199,100,166)"/></g><g><path d=" M 117.426 203.678 L 130.878 211.442 C 132.554 212.412 135.26 212.412 136.927 211.442 L 143.219 207.786 C 144.886 206.818 144.875 205.25 143.198 204.282 L 129.747 196.514 C 128.062 195.542 125.355 195.542 123.688 196.512 L 117.396 200.166 C 115.731 201.138 115.739 202.704 117.426 203.678 Z " fill="rgb(51,86,154)"/></g><g><path d=" M 127.381 213.474 L 113.929 205.71 C 112.244 204.733 109.528 204.742 107.861 205.71 L 101.577 209.361 C 99.912 210.327 99.921 211.897 101.607 212.867 L 115.059 220.637 C 116.735 221.607 119.444 221.603 121.108 220.637 L 127.393 216.985 C 129.059 216.017 129.06 214.443 127.381 213.474 Z " fill="rgb(51,154,127)"/></g><g><path d=" M 157.333 212.443 L 152.531 209.672 C 150.844 208.696 148.139 208.696 146.472 209.664 L 124.361 222.516 C 122.695 223.481 122.703 225.052 124.391 226.024 L 129.193 228.797 C 130.871 229.764 133.585 229.768 135.252 228.801 L 157.361 215.953 C 159.028 214.985 159.012 213.413 157.333 212.443 Z " fill="rgb(132,201,86)"/></g></g></g></g></g><g><linearGradient id="_lgradient_8" x1="0.4999899244332511" y1="-2.5846084956043" x2="0.49998986011277663" y2="0.46224360407252174" gradientTransform="matrix(7.94,0,0,16.228,61.895,137.68)" gradientUnits="userSpaceOnUse"><stop offset="0%" stop-opacity="1" style="stop-color:rgb(255,204,0)"/><stop offset="100%" stop-opacity="1" style="stop-color:rgb(252,139,0)"/></linearGradient><path d=" M 61.895 142.247 L 61.929 153.908 L 69.835 149.341 L 69.801 137.68 L 61.895 142.247 Z " fill="url(#_lgradient_8)"/></g><g><linearGradient id="_lgradient_9" x1="0.5000049941734659" y1="-0.32304606661941726" x2="0.5000049821052871" y2="0.9908930237319034" gradientTransform="matrix(8.009,0,0,37.627,76.355,107.897)" gradientUnits="userSpaceOnUse"><stop offset="0%" stop-opacity="1" style="stop-color:rgb(56,94,168)"/><stop offset="100%" stop-opacity="1" style="stop-color:rgb(33,55,99)"/></linearGradient><path d=" M 76.355 112.465 L 76.448 145.524 L 84.364 140.953 L 84.271 107.897 L 76.355 112.465 Z " fill="url(#_lgradient_9)"/></g><g><linearGradient id="_lgradient_10" x1="0.5000117469374175" y1="-1.2071192947533085" x2="0.5000116987508253" y2="1.4290840839490544" gradientTransform="matrix(7.945,0,0,18.755,90.94,118.38)" gradientUnits="userSpaceOnUse"><stop offset="0%" stop-opacity="1" style="stop-color:rgb(255,204,0)"/><stop offset="100%" stop-opacity="1" style="stop-color:rgb(252,139,0)"/></linearGradient><path d=" M 90.94 122.943 L 90.98 137.135 L 98.885 132.569 L 98.847 118.38 L 90.94 122.943 Z " fill="url(#_lgradient_10)"/></g><g><linearGradient id="_lgradient_11" x1="0.49999417110934274" y1="0.12269744964267293" x2="0.49999415903783084" y2="1.4367169676841383" gradientTransform="matrix(8.01,0,0,37.626,105.407,91.123)" gradientUnits="userSpaceOnUse"><stop offset="0%" stop-opacity="1" style="stop-color:rgb(56,94,168)"/><stop offset="100%" stop-opacity="1" style="stop-color:rgb(33,55,99)"/></linearGradient><path d=" M 105.407 95.696 L 105.5 128.749 L 113.417 124.18 L 113.323 91.123 L 105.407 95.696 Z " fill="url(#_lgradient_11)"/></g><g><linearGradient id="_lgradient_12" x1="0.500097682119204" y1="0.5623497345468325" x2="0.500097676690718" y2="1.4412077142175446" gradientTransform="matrix(8.053,0,0,56.256,119.884,64.105)" gradientUnits="userSpaceOnUse"><stop offset="0%" stop-opacity="1" style="stop-color:rgb(255,204,0)"/><stop offset="100%" stop-opacity="1" style="stop-color:rgb(252,139,0)"/></linearGradient><path d=" M 119.884 68.669 L 120.032 120.361 L 127.937 115.796 L 127.791 64.105 L 119.884 68.669 Z " fill="url(#_lgradient_12)"/></g><g><clipPath id="_clipPath_hzagjS4d6bVSH66WDyvVvA9K3H0exSZg"><path d=" M -305 -180 L 361.667 -180 L 361.667 486.667 L -305 486.667 L -305 -180 Z " fill="rgb(255,255,255)"/></clipPath><g clip-path="url(#_clipPath_hzagjS4d6bVSH66WDyvVvA9K3H0exSZg)"><g><g><clipPath id="_clipPath_Ac8pGERuq3KA3shUCzDJ7pDnkesDy5gd"><path d=" M -1505 -1380 L 895 -1380 L 895 1020 L -1505 1020 L -1505 -1380 Z  M 239.815 29.32 L 232.332 29.32 L 239.815 29.32 Z " fill-rule="evenodd" fill="rgb(255,255,255)"/></clipPath><g clip-path="url(#_clipPath_Ac8pGERuq3KA3shUCzDJ7pDnkesDy5gd)"><mask id="_mask_rjz6By7th1AgrXbErWSv0jMccrA5WNUi" x="-200%" y="-200%" width="400%" height="400%"><rect x="-200%" y="-200%" width="400%" height="400%" style="fill:white;"/><line x1="239.815" y1="29.32" x2="232.332" y2="29.32" fill="black" stroke="none"/></mask><line x1="239.815" y1="29.32" x2="232.332" y2="29.32" mask="url(#_mask_rjz6By7th1AgrXbErWSv0jMccrA5WNUi)" vector-effect="non-scaling-stroke" stroke-width="2.667" stroke="rgb(255,255,255)" stroke-opacity="100" stroke-linejoin="miter" stroke-linecap="round" stroke-miterlimit="10"/></g></g><g><clipPath id="_clipPath_ZNL6Svit5uoWlQrJDjJrxOlD8kwKftoz"><path d=" M -1505 -1380 L 895 -1380 L 895 1020 L -1505 1020 L -1505 -1380 Z  M 236.073 25.579 L 236.073 33.061 L 236.073 25.579 Z " fill-rule="evenodd" fill="rgb(255,255,255)"/></clipPath><g clip-path="url(#_clipPath_ZNL6Svit5uoWlQrJDjJrxOlD8kwKftoz)"><mask id="_mask_auWT6Q2yD04a3yMyWNudFE9y5wVp4BdH" x="-200%" y="-200%" width="400%" height="400%"><rect x="-200%" y="-200%" width="400%" height="400%" style="fill:white;"/><line x1="236.073" y1="25.579" x2="236.073" y2="33.061" fill="black" stroke="none"/></mask><line x1="236.073" y1="25.579" x2="236.073" y2="33.061" mask="url(#_mask_auWT6Q2yD04a3yMyWNudFE9y5wVp4BdH)" vector-effect="non-scaling-stroke" stroke-width="2.667" stroke="rgb(255,255,255)" stroke-opacity="100" stroke-linejoin="miter" stroke-linecap="round" stroke-miterlimit="10"/></g></g><g><clipPath id="_clipPath_SyysHnUndbSHV22qdSJdAilDx7nEMbTY"><path d=" M -1505 -1380 L 895 -1380 L 895 1020 L -1505 1020 L -1505 -1380 Z  M 95.984 47.005 L 90.694 52.296 L 95.984 47.005 Z " fill-rule="evenodd" fill="rgb(255,255,255)"/></clipPath><g clip-path="url(#_clipPath_SyysHnUndbSHV22qdSJdAilDx7nEMbTY)"><mask id="_mask_6nB140mPB6yL6VxLFr8Fw3yOftK5yaeP" x="-200%" y="-200%" width="400%" height="400%"><rect x="-200%" y="-200%" width="400%" height="400%" style="fill:white;"/><line x1="95.984" y1="47.005" x2="90.694" y2="52.296" fill="black" stroke="none"/></mask><line x1="95.984" y1="47.005" x2="90.694" y2="52.296" mask="url(#_mask_6nB140mPB6yL6VxLFr8Fw3yOftK5yaeP)" vector-effect="non-scaling-stroke" stroke-width="2.667" stroke="rgb(255,255,255)" stroke-opacity="100" stroke-linejoin="miter" stroke-linecap="round" stroke-miterlimit="10"/></g></g><g><clipPath id="_clipPath_tkEZFjWSje7wCGxFzY643yjUJvHBrHaE"><path d=" M -1505 -1380 L 895 -1380 L 895 1020 L -1505 1020 L -1505 -1380 Z  M 90.694 47.005 L 95.985 52.296 L 90.694 47.005 Z " fill-rule="evenodd" fill="rgb(255,255,255)"/></clipPath><g clip-path="url(#_clipPath_tkEZFjWSje7wCGxFzY643yjUJvHBrHaE)"><mask id="_mask_r6Hcmn3XXpO7LvGDVvZqMNR0LpRIXPQC" x="-200%" y="-200%" width="400%" height="400%"><rect x="-200%" y="-200%" width="400%" height="400%" style="fill:white;"/><line x1="90.694" y1="47.005" x2="95.985" y2="52.296" fill="black" stroke="none"/></mask><line x1="90.694" y1="47.005" x2="95.985" y2="52.296" mask="url(#_mask_r6Hcmn3XXpO7LvGDVvZqMNR0LpRIXPQC)" vector-effect="non-scaling-stroke" stroke-width="2.667" stroke="rgb(255,255,255)" stroke-opacity="100" stroke-linejoin="miter" stroke-linecap="round" stroke-miterlimit="10"/></g></g><g><clipPath id="_clipPath_lCDackOgKeztWaoy9XJJ2734rRmzecTU"><path d=" M -1505 -1380 L 895 -1380 L 895 1020 L -1505 1020 L -1505 -1380 Z  M 287.313 223.602 L 277.729 221.007 L 284.767 214.004 L 287.313 223.602 L 287.313 223.602 Z " fill-rule="evenodd" fill="rgb(255,255,255)"/></clipPath><g clip-path="url(#_clipPath_lCDackOgKeztWaoy9XJJ2734rRmzecTU)"><mask id="_mask_qO9lYzdUgWsJZZjDm17xTd8m7ldKgM87" x="-200%" y="-200%" width="400%" height="400%"><rect x="-200%" y="-200%" width="400%" height="400%" style="fill:white;"/><path d=" M 287.313 223.602 L 277.729 221.007 L 284.767 214.004 L 287.313 223.602 Z " fill="black" stroke="none"/></mask><path d=" M 287.313 223.602 L 277.729 221.007 L 284.767 214.004 L 287.313 223.602 Z " fill="none" mask="url(#_mask_qO9lYzdUgWsJZZjDm17xTd8m7ldKgM87)" vector-effect="non-scaling-stroke" stroke-width="2.667" stroke="rgb(255,255,255)" stroke-opacity="100" stroke-linejoin="round" stroke-linecap="round" stroke-miterlimit="10"/></g></g><g><clipPath id="_clipPath_3cndOT4zmI1FKZGIRu95SXmrK15dcHvs"><path d=" M -1505 -1380 L 895 -1380 L 895 1020 L -1505 1020 L -1505 -1380 Z  M 77.464 285.951 L 73.872 289.667 L 72.448 284.697 L 77.464 285.951 L 77.464 285.951 Z " fill-rule="evenodd" fill="rgb(255,255,255)"/></clipPath><g clip-path="url(#_clipPath_3cndOT4zmI1FKZGIRu95SXmrK15dcHvs)"><mask id="_mask_mUxwvAsP9Rpa9ZGpPb6291VEuHBGVno1" x="-200%" y="-200%" width="400%" height="400%"><rect x="-200%" y="-200%" width="400%" height="400%" style="fill:white;"/><path d=" M 77.464 285.951 L 73.872 289.667 L 72.448 284.697 L 77.464 285.951 Z " fill="black" stroke="none"/></mask><path d=" M 77.464 285.951 L 73.872 289.667 L 72.448 284.697 L 77.464 285.951 Z " fill="none" mask="url(#_mask_mUxwvAsP9Rpa9ZGpPb6291VEuHBGVno1)" vector-effect="non-scaling-stroke" stroke-width="2.667" stroke="rgb(255,255,255)" stroke-opacity="100" stroke-linejoin="round" stroke-linecap="round" stroke-miterlimit="10"/></g></g><g><clipPath id="_clipPath_0x8QnUowvg6AjIoVK9wq9HVssi2dg59G"><path d=" M -1505 -1380 L 895 -1380 L 895 1020 L -1505 1020 L -1505 -1380 Z  M 174.918 287.181 L 171.171 284.852 L 173.502 281.104 L 177.247 283.434 L 174.918 287.181 L 174.918 287.181 Z " fill-rule="evenodd" fill="rgb(255,255,255)"/></clipPath><g clip-path="url(#_clipPath_0x8QnUowvg6AjIoVK9wq9HVssi2dg59G)"><mask id="_mask_gQoIldJI1eBYHDXYRziuG3aIwvRyKCxy" x="-200%" y="-200%" width="400%" height="400%"><rect x="-200%" y="-200%" width="400%" height="400%" style="fill:white;"/><path d=" M 174.918 287.181 L 171.171 284.852 L 173.502 281.104 L 177.247 283.434 L 174.918 287.181 Z " fill="black" stroke="none"/></mask><path d=" M 174.918 287.181 L 171.171 284.852 L 173.502 281.104 L 177.247 283.434 L 174.918 287.181 Z " fill="none" mask="url(#_mask_gQoIldJI1eBYHDXYRziuG3aIwvRyKCxy)" vector-effect="non-scaling-stroke" stroke-width="2.667" stroke="rgb(255,255,255)" stroke-opacity="100" stroke-linejoin="round" stroke-linecap="round" stroke-miterlimit="10"/></g></g><g><clipPath id="_clipPath_Mmjo29zy7K9rYwR3Q3YOnxk7KLgujV79"><path d=" M -1505 -1380 L 895 -1380 L 895 1020 L -1505 1020 L -1505 -1380 Z  M 285.003 155.417 L 285.003 150.255 L 285.003 155.417 Z " fill-rule="evenodd" fill="rgb(255,255,255)"/></clipPath><g clip-path="url(#_clipPath_Mmjo29zy7K9rYwR3Q3YOnxk7KLgujV79)"><mask id="_mask_z5PoQFAf9jrsY56jraKozXMinctBA9nG" x="-200%" y="-200%" width="400%" height="400%"><rect x="-200%" y="-200%" width="400%" height="400%" style="fill:white;"/><line x1="285.003" y1="155.417" x2="285.003" y2="150.255" fill="black" stroke="none"/></mask><line x1="285.003" y1="155.417" x2="285.003" y2="150.255" mask="url(#_mask_z5PoQFAf9jrsY56jraKozXMinctBA9nG)" vector-effect="non-scaling-stroke" stroke-width="2.667" stroke="rgb(255,255,255)" stroke-opacity="100" stroke-linejoin="round" stroke-linecap="round" stroke-miterlimit="10"/></g></g><g><clipPath id="_clipPath_etnZp6693KkeJX4wysTrYff9btz8n6iv"><path d=" M -1505 -1380 L 895 -1380 L 895 1020 L -1505 1020 L -1505 -1380 Z  M 282.836 151.49 L 285.003 149.322 L 287.169 151.49 L 282.836 151.49 Z " fill-rule="evenodd" fill="rgb(255,255,255)"/></clipPath><g clip-path="url(#_clipPath_etnZp6693KkeJX4wysTrYff9btz8n6iv)"><mask id="_mask_mdxACdyl2l7pQvShB3LBOKfDulBMMuLi" x="-200%" y="-200%" width="400%" height="400%"><rect x="-200%" y="-200%" width="400%" height="400%" style="fill:white;"/><path d=" M 282.836 151.49 L 285.003 149.322 L 287.169 151.49" fill="black" stroke="none"/></mask><path d=" M 282.836 151.49 L 285.003 149.322 L 287.169 151.49" fill="none" mask="url(#_mask_mdxACdyl2l7pQvShB3LBOKfDulBMMuLi)" vector-effect="non-scaling-stroke" stroke-width="2.667" stroke="rgb(255,255,255)" stroke-opacity="100" stroke-linejoin="round" stroke-linecap="round" stroke-miterlimit="10"/></g></g><g><clipPath id="_clipPath_4jRAjpjxm6mAptDfWZiqNNd04twHYN5g"><path d=" M -1505 -1380 L 895 -1380 L 895 1020 L -1505 1020 L -1505 -1380 Z  M 289.965 156.391 L 289.965 161.552 L 289.965 156.391 Z " fill-rule="evenodd" fill="rgb(255,255,255)"/></clipPath><g clip-path="url(#_clipPath_4jRAjpjxm6mAptDfWZiqNNd04twHYN5g)"><mask id="_mask_vNDbRpERcZpPIm85dEa1D6XgbTdz9ZxF" x="-200%" y="-200%" width="400%" height="400%"><rect x="-200%" y="-200%" width="400%" height="400%" style="fill:white;"/><line x1="289.965" y1="156.391" x2="289.965" y2="161.552" fill="black" stroke="none"/></mask><line x1="289.965" y1="156.391" x2="289.965" y2="161.552" mask="url(#_mask_vNDbRpERcZpPIm85dEa1D6XgbTdz9ZxF)" vector-effect="non-scaling-stroke" stroke-width="2.667" stroke="rgb(255,255,255)" stroke-opacity="100" stroke-linejoin="round" stroke-linecap="round" stroke-miterlimit="10"/></g></g><g><clipPath id="_clipPath_VuS5vdkpkY5udcOvG2ElwYID5c2XxqxG"><path d=" M -1505 -1380 L 895 -1380 L 895 1020 L -1505 1020 L -1505 -1380 Z  M 292.131 160.318 L 289.965 162.486 L 287.798 160.318 L 292.131 160.318 Z " fill-rule="evenodd" fill="rgb(255,255,255)"/></clipPath><g clip-path="url(#_clipPath_VuS5vdkpkY5udcOvG2ElwYID5c2XxqxG)"><mask id="_mask_TprFiAdaWFc0bHkE1GcRcxQp5NM2LtjV" x="-200%" y="-200%" width="400%" height="400%"><rect x="-200%" y="-200%" width="400%" height="400%" style="fill:white;"/><path d=" M 292.131 160.318 L 289.965 162.486 L 287.798 160.318" fill="black" stroke="none"/></mask><path d=" M 292.131 160.318 L 289.965 162.486 L 287.798 160.318" fill="none" mask="url(#_mask_TprFiAdaWFc0bHkE1GcRcxQp5NM2LtjV)" vector-effect="non-scaling-stroke" stroke-width="2.667" stroke="rgb(255,255,255)" stroke-opacity="100" stroke-linejoin="round" stroke-linecap="round" stroke-miterlimit="10"/></g></g><g><clipPath id="_clipPath_s3wKApGfxST5ILlxIVCDIujszWAOCvb2"><path d=" M -1505 -1380 L 895 -1380 L 895 1020 L -1505 1020 L -1505 -1380 Z  M 148.531 13.513 L 148.081 19.185 L 152.526 22.736 L 152.078 28.408 L 156.526 31.966 L 156.081 37.648 L 148.531 13.513 Z " fill-rule="evenodd" fill="rgb(255,255,255)"/></clipPath><g clip-path="url(#_clipPath_s3wKApGfxST5ILlxIVCDIujszWAOCvb2)"><mask id="_mask_DRft3hG9EcqbfhDoprRuTdT4yjkaGj0F" x="-200%" y="-200%" width="400%" height="400%"><rect x="-200%" y="-200%" width="400%" height="400%" style="fill:white;"/><path d=" M 148.531 13.513 L 148.081 19.185 L 152.526 22.736 L 152.078 28.408 L 156.526 31.966 L 156.081 37.648" fill="black" stroke="none"/></mask><path d=" M 148.531 13.513 L 148.081 19.185 L 152.526 22.736 L 152.078 28.408 L 156.526 31.966 L 156.081 37.648" fill="none" mask="url(#_mask_DRft3hG9EcqbfhDoprRuTdT4yjkaGj0F)" vector-effect="non-scaling-stroke" stroke-width="2.667" stroke="rgb(255,255,255)" stroke-opacity="100" stroke-linejoin="round" stroke-linecap="round" stroke-miterlimit="10"/></g></g><g><clipPath id="_clipPath_aJ1qsyXIMl7OItQxyT1U4n2upzRLROZs"><path d=" M -1505 -1380 L 895 -1380 L 895 1020 L -1505 1020 L -1505 -1380 Z  M 3.456 248.456 L 8.984 247.109 L 10.966 241.777 L 16.496 240.43 L 18.485 235.093 L 24.02 233.74 L 3.456 248.456 Z " fill-rule="evenodd" fill="rgb(255,255,255)"/></clipPath><g clip-path="url(#_clipPath_aJ1qsyXIMl7OItQxyT1U4n2upzRLROZs)"><mask id="_mask_9r3e6s0fQQ54FltasCyuEruDlk2XuwsL" x="-200%" y="-200%" width="400%" height="400%"><rect x="-200%" y="-200%" width="400%" height="400%" style="fill:white;"/><path d=" M 3.456 248.456 L 8.984 247.109 L 10.966 241.777 L 16.496 240.43 L 18.485 235.093 L 24.02 233.74" fill="black" stroke="none"/></mask><path d=" M 3.456 248.456 L 8.984 247.109 L 10.966 241.777 L 16.496 240.43 L 18.485 235.093 L 24.02 233.74" fill="none" mask="url(#_mask_9r3e6s0fQQ54FltasCyuEruDlk2XuwsL)" vector-effect="non-scaling-stroke" stroke-width="2.667" stroke="rgb(255,255,255)" stroke-opacity="100" stroke-linejoin="round" stroke-linecap="round" stroke-miterlimit="10"/></g></g><g><clipPath id="_clipPath_icjRKk6gu6EusRTZfedDaf7obLncilFf"><path d=" M -1505 -1380 L 895 -1380 L 895 1020 L -1505 1020 L -1505 -1380 Z  M 253.362 280.723 L 254.313 286.331 L 259.493 288.688 L 260.443 294.299 L 265.625 296.661 L 266.583 302.279 L 253.362 280.723 Z " fill-rule="evenodd" fill="rgb(255,255,255)"/></clipPath><g clip-path="url(#_clipPath_icjRKk6gu6EusRTZfedDaf7obLncilFf)"><mask id="_mask_YvWhRYHP39iItCJXJylcs902I2bGsXeZ" x="-200%" y="-200%" width="400%" height="400%"><rect x="-200%" y="-200%" width="400%" height="400%" style="fill:white;"/><path d=" M 253.362 280.723 L 254.313 286.331 L 259.493 288.688 L 260.443 294.299 L 265.625 296.661 L 266.583 302.279" fill="black" stroke="none"/></mask><path d=" M 253.362 280.723 L 254.313 286.331 L 259.493 288.688 L 260.443 294.299 L 265.625 296.661 L 266.583 302.279" fill="none" mask="url(#_mask_YvWhRYHP39iItCJXJylcs902I2bGsXeZ)" vector-effect="non-scaling-stroke" stroke-width="2.667" stroke="rgb(255,255,255)" stroke-opacity="100" stroke-linejoin="round" stroke-linecap="round" stroke-miterlimit="10"/></g></g></g></g></g></g></svg>