<?xml version="1.0" standalone="no"?><!-- Generator: Gravit.io --><svg xmlns="http://www.w3.org/2000/svg" xmlns:xlink="http://www.w3.org/1999/xlink" style="isolation:isolate" viewBox="0 0 600 350" width="2000" height="350"><defs><clipPath id="_clipPath_l84iAILKrJv4QPxarlVU1RJfT4gpxAPM"><rect width="600" height="350"/></clipPath></defs><g clip-path="url(#_clipPath_l84iAILKrJv4QPxarlVU1RJfT4gpxAPM)"><g><g><linearGradient id="_lgradient_2" x1="0.8731404417657083" y1="0.022143568590323348" x2="0.43069752480276285" y2="0.47241975409642667" gradientTransform="matrix(598.043,0,0,349.479,1.476,0.87)" gradientUnits="userSpaceOnUse"><stop offset="0%" stop-opacity="1" style="stop-color:rgb(166,231,255)"/><stop offset="100%" stop-opacity="1" style="stop-color:rgb(91,155,245)"/></linearGradient><path d=" M 434.716 0.87 C 355.049 26.586 289.998 154.429 259.906 207.468 L 259.906 207.468 C 215.358 285.995 139.885 321.664 1.476 316.744 L 1.476 316.744 L 1.476 343.821 C 1.476 347.409 4.7 350.348 8.639 350.348 L 8.639 350.348 L 592.358 350.348 C 596.298 350.348 599.519 347.409 599.519 343.821 L 599.519 343.821 L 599.519 7.397 C 599.519 3.808 596.298 0.87 592.358 0.87 L 592.358 0.87 L 434.716 0.87 Z " fill="url(#_lgradient_2)"/></g><g><linearGradient id="_lgradient_3" x1="0.5110917956184609" y1="0.12009597463821053" x2="0.500933667422883" y2="0.3002507824918012" gradientTransform="matrix(598.043,0,0,269.262,1.478,81.087)" gradientUnits="userSpaceOnUse"><stop offset="0%" stop-opacity="1" style="stop-color:rgb(166,231,255)"/><stop offset="100%" stop-opacity="1" style="stop-color:rgb(91,155,245)"/></linearGradient><path d=" M 467.235 165.706 C 416.692 165.706 393.849 126.426 334.945 138.22 L 334.945 138.22 C 280.513 149.119 271.296 211.721 235.876 242.033 L 235.876 242.033 C 189.449 296.412 117.626 320.873 1.478 316.744 L 1.478 316.744 L 1.478 343.821 C 1.478 347.409 4.702 350.348 8.641 350.348 L 8.641 350.348 L 592.36 350.348 C 596.3 350.348 599.521 347.409 599.521 343.821 L 599.521 343.821 L 599.521 81.087 C 517.941 81.089 544.327 165.706 467.235 165.706 Z " fill="url(#_lgradient_3)"/></g><g><clipPath id="_clipPath_fFBLujzhMQALKjk4pd3YMYMBmWfPVNFF"><path d=" M -37 -115 L 638 -115 L 638 500 L -37 500 L -37 -115 Z " fill="rgb(255,255,255)"/></clipPath><g clip-path="url(#_clipPath_fFBLujzhMQALKjk4pd3YMYMBmWfPVNFF)"><g><g/></g><g><clipPath id="_clipPath_sbOn0YRR54SemwfLNy9HDvbnT5PmZSYH"><path d=" M -1387 -1345 L 1313 -1345 L 1313 1115 L -1387 1115 L -1387 -1345 Z  M 599.519 81.087 C 517.939 81.089 544.325 165.706 467.233 165.706 C 416.69 165.706 393.847 126.426 334.944 138.22 C 280.511 149.119 271.294 211.721 235.874 242.034 L 599.519 81.087 Z " fill-rule="evenodd" fill="rgb(255,255,255)"/></clipPath><g clip-path="url(#_clipPath_sbOn0YRR54SemwfLNy9HDvbnT5PmZSYH)"><mask id="_mask_4cO35ZXjRdhJi5PbGHdxoPfnFQYO1vQV" x="-200%" y="-200%" width="400%" height="400%"><rect x="-200%" y="-200%" width="400%" height="400%" style="fill:white;"/><path d=" M 599.519 81.087 C 517.939 81.089 544.325 165.706 467.233 165.706 C 416.69 165.706 393.847 126.426 334.944 138.22 C 280.511 149.119 271.294 211.721 235.874 242.034" fill="black" stroke="none"/></mask><path d=" M 599.519 81.087 C 517.939 81.089 544.325 165.706 467.233 165.706 C 416.69 165.706 393.847 126.426 334.944 138.22 C 280.511 149.119 271.294 211.721 235.874 242.034" fill="none" mask="url(#_mask_4cO35ZXjRdhJi5PbGHdxoPfnFQYO1vQV)" vector-effect="non-scaling-stroke" stroke-width="1.333" stroke="rgb(176,243,255)" stroke-opacity="100" stroke-linejoin="miter" stroke-linecap="butt" stroke-miterlimit="10"/></g></g></g></g></g></g></svg>