<svg xmlns="http://www.w3.org/2000/svg" style="isolation:isolate;" viewBox="0 0 300 300" width="450" height="450"><g clip-path="url(#a)"><linearGradient id="b" x1=".579" y1=".029" x2=".451" y2=".689" gradientTransform="matrix(121.079 0 0 114.952 178.752 45.995)" gradientUnits="userSpaceOnUse"><stop offset="0%" stop-color="#fff"/><stop offset="100%" stop-color="#e8ebfb"/></linearGradient><path d="M212.935 49.805c-7.774 4.491-14.398 10.85-19.763 19.002-13.609 20.666-14.411 46.046-14.42 46.305l78.872 45.835c.005-.258.808-25.636 14.417-46.308 5.366-8.148 11.99-14.511 19.764-18.999a55.916 55.916 0 0 1 8.026-3.812L220.96 45.995a56.047 56.047 0 0 0-8.025 3.81z" fill="url(#b)"/><clipPath id="c"><path d="M-305-180h666.667v666.667H-305V-180z" fill="#FFF"/></clipPath><g clip-path="url(#c)"><path d="M251.328 126.406c.125-.36.26-.725.393-1.088l-58.013-33.714c-.132.364-.268.728-.396 1.089l58.016 33.713zM247.427 140.892c.076-.387.156-.783.24-1.181l-58.025-33.719c-.082.396-.166.795-.242 1.183l58.027 33.717zM248.325 136.746c.091-.385.182-.768.278-1.159l-58.022-33.716c-.097.391-.188.774-.278 1.159l58.022 33.716zM249.602 131.854c.105-.372.218-.751.332-1.127L191.915 97.01c-.113.377-.225.753-.332 1.125l58.019 33.719zM259.88 108.704c.071-.108.134-.214.203-.32.143-.216.295-.417.437-.626l-57.994-33.703c-.159.233-.327.456-.484.693-.055.086-.104.168-.159.252l57.997 33.704zM256.406 114.645c.178-.336.359-.671.539-1.007l-58.001-33.705c-.182.336-.366.669-.543 1.004l58.005 33.708zM253.575 120.609c.148-.352.306-.701.462-1.053l-58.008-33.707c-.156.35-.315.698-.464 1.05l58.01 33.71zM215.458 60.055c-.32.25-.638.508-.954.765l57.973 33.691c.317-.262.635-.516.955-.767l-57.974-33.689zM211.995 62.992c-.295.272-.599.529-.888.807l57.978 33.689c.29-.275.595-.531.887-.801l-57.977-33.695zM208.693 66.249c-.263.281-.515.582-.774.87l57.987 33.698c.259-.288.508-.594.769-.874l-57.982-33.694zM205.615 69.852c-.238.298-.472.601-.708.908l57.992 33.697c.234-.304.469-.607.708-.907l-57.992-33.698z" fill="#C5CDE0"/></g><linearGradient id="d" x1=".454" y1=".182" x2=".59" y2=".499" gradientTransform="matrix(232.549 0 0 134.796 31.437 108.264)" gradientUnits="userSpaceOnUse"><stop offset="0%" stop-color="#fff"/><stop offset="100%" stop-color="#e8ebfb"/></linearGradient><path d="M167.537 109.637L33.781 187.369c-3.14 1.824-3.124 4.782.038 6.607l82.64 47.712c3.17 1.829 8.276 1.829 11.418.005l133.756-77.73c3.151-1.831 3.135-4.788-.036-6.62l-82.642-47.712c-1.579-.911-3.643-1.367-5.706-1.367-2.068 0-4.134.457-5.712 1.373z" fill="url(#d)"/><linearGradient id="e" x1=".844" y1="-.434" x2=".151" y2="-.217" gradientTransform="matrix(232.558 0 0 93.741 31.429 160.675)" gradientUnits="userSpaceOnUse"><stop offset="0%" stop-color="#e8ebfb"/><stop offset="100%" stop-color="#ced4ed"/></linearGradient><path d="M261.633 163.963l-133.756 77.73c-3.142 1.824-8.248 1.824-11.418-.005l-82.64-47.712c-1.592-.921-2.387-2.125-2.382-3.329-.017 5.818.011 5.537-.008 11.354-.002 1.206.792 2.411 2.384 3.328l82.64 47.714c3.172 1.829 8.276 1.832 11.418.004l133.757-77.731c1.565-.909 2.348-2.099 2.351-3.285.018-5.818-.01-5.538.008-11.356-.006 1.192-.79 2.378-2.354 3.288z" fill="url(#e)"/><clipPath id="f"><path d="M-305-180h666.667v666.667H-305V-180z" fill="#FFF"/></clipPath><g clip-path="url(#f)"><path d="M261.633 163.962l-133.755 77.731c-3.144 1.825-8.248 1.825-11.419-.005l-82.64-47.712c-1.593-.922-2.386-2.126-2.381-3.328-.004.637-.005 1.277-.008 1.913.108 1.113.867 2.208 2.34 3.059l82.639 47.712c3.172 1.83 8.276 1.832 11.418.005l133.756-77.729c1.566-.91 2.35-2.098 2.352-3.288.003-.458.003-.916.004-1.374-.112 1.099-.861 2.178-2.306 3.016z" fill="#FFF"/></g><linearGradient id="g" x1=".547" y1=".103" x2=".452" y2=".373" gradientTransform="matrix(104.611 0 0 60.501 143.953 117.197)" gradientUnits="userSpaceOnUse"><stop offset="0%" stop-color="#385ea8"/><stop offset="100%" stop-color="#213763"/></linearGradient><path d="M168.083 117.924l-22.887 13.3c-1.667.969-1.656 2.536.028 3.511l73.153 42.232c1.676.97 4.394.976 6.058.008l22.889-13.303c1.668-.968 1.649-2.54-.028-3.507l-73.153-42.238c-.844-.487-1.944-.73-3.04-.73-1.095 0-2.187.242-3.02.727z" fill="url(#g)"/><clipPath id="h"><path d="M-305-180h666.667v666.667H-305V-180z" fill="#FFF"/></clipPath><g clip-path="url(#h)"><path d="M145.168 132.681l22.889-13.301c1.667-.968 4.372-.968 6.059.005l73.152 42.235c.532.308.876.676 1.073 1.066.476-.861.135-1.84-1.044-2.522l-73.154-42.236c-1.687-.974-4.392-.974-6.059-.004l-22.888 13.3c-1.141.662-1.476 1.601-1.048 2.445.2-.361.528-.701 1.02-.988z" fill="#233A69"/><path d="M119.32 149.788l13.451 7.766c1.677.97 4.384.97 6.049 0l6.284-3.653c1.678-.972 1.667-2.541-.01-3.508l-13.451-7.765c-1.685-.976-4.393-.976-6.068 0l-6.283 3.65c-1.666.97-1.658 2.538.028 3.51z" fill="#C764A6"/><path d="M103.493 158.986l13.452 7.764c1.678.97 4.394.965 6.06-.004l6.282-3.651c1.666-.967 1.656-2.536-.02-3.504l-13.452-7.767c-1.686-.974-4.392-.974-6.058-.006l-6.284 3.652c-1.666.968-1.666 2.541.02 3.516z" fill="#33569A"/><path d="M142.104 162.943l13.451 7.765c1.677.969 4.384.969 6.049 0l6.284-3.652c1.675-.973 1.667-2.54-.011-3.509l-13.452-7.767c-1.685-.973-4.392-.973-6.066 0l-6.283 3.651c-1.667.97-1.66 2.537.028 3.512z" fill="#C764A6"/><path d="M87.676 168.177l13.45 7.767c1.679.968 4.386.968 6.051 0l6.293-3.658c1.666-.969 1.658-2.533-.021-3.505l-13.452-7.764c-1.684-.975-4.391-.975-6.057-.007l-6.292 3.659c-1.667.967-1.659 2.535.028 3.508zM71.859 177.37l13.451 7.765c1.677.969 4.383.969 6.049 0l6.295-3.656c1.664-.968 1.656-2.537-.021-3.504l-13.451-7.767c-1.687-.974-4.393-.974-6.06-.005l-6.292 3.656c-1.665.971-1.659 2.537.029 3.511zM139.729 179.905c1.678.968 4.392.964 6.059-.005l6.283-3.652c1.666-.968 1.657-2.535-.02-3.503l-13.452-7.767c-1.687-.972-4.394-.972-6.058-.004l-6.284 3.651c-1.666.968-1.666 2.54.019 3.515l13.453 7.765z" fill="#33569A"/><path d="M164.887 176.095l13.452 7.765c1.677.971 4.382.971 6.049 0l6.284-3.649c1.675-.975 1.667-2.541-.012-3.511l-13.451-7.762c-1.685-.978-4.392-.978-6.068 0l-6.284 3.648c-1.665.969-1.657 2.537.03 3.509z" fill="#C764A6"/><path d="M116.724 174.164l-6.295 3.656c-1.665.971-1.656 2.539.03 3.511l13.452 7.766c1.677.968 4.384.968 6.05 0l6.291-3.656c1.667-.969 1.66-2.536-.02-3.505l-13.451-7.765c-1.686-.975-4.392-.975-6.057-.007z" fill="#33569A"/><path d="M204.796 184.863l-4.804-2.776c-1.684-.97-4.391-.97-6.067 0l-6.284 3.652c-1.665.97-1.656 2.538.028 3.512l4.805 2.772c1.678.97 4.391.972 6.059.004l6.283-3.65c1.674-.975 1.657-2.547-.02-3.514z" fill="#C764A6"/><path d="M168.57 193.055l6.284-3.652c1.667-.967 1.656-2.538-.021-3.504l-13.451-7.767c-1.685-.972-4.393-.972-6.057-.005l-6.283 3.652c-1.666.966-1.666 2.538.018 3.514l13.453 7.764c1.677.97 4.391.967 6.057-.002z" fill="#33569A"/><path d="M81.815 187.165l-13.451-7.764c-1.686-.974-4.404-.969-6.069 0l-6.284 3.652c-1.665.967-1.657 2.535.031 3.508l13.45 7.768c1.676.967 4.384.967 6.05 0l6.284-3.652c1.666-.968 1.666-2.54-.011-3.512z" fill="#C764A6"/><path d="M100.906 183.357l-6.293 3.657c-1.665.968-1.657 2.537.031 3.509l13.45 7.768c1.676.967 4.384.967 6.05 0l6.292-3.658c1.665-.968 1.658-2.534-.019-3.506l-13.452-7.765c-1.687-.973-4.392-.973-6.059-.005z" fill="#33569A"/><path d="M188.969 194.06l-4.804-2.775c-1.686-.973-4.391-.973-6.058-.004l-6.282 3.652c-1.666.97-1.666 2.542.018 3.515l4.804 2.772c1.678.971 4.403.971 6.067 0l6.283-3.652c1.666-.967 1.649-2.541-.028-3.508z" fill="#C764A6"/><path d="M152.742 202.251l6.295-3.654c1.666-.971 1.657-2.539-.02-3.506l-13.452-7.766c-1.686-.975-4.394-.975-6.06-.004l-6.291 3.656c-1.667.966-1.659 2.536.028 3.509l13.451 7.765c1.677.971 4.385.971 6.049 0zM104.599 200.32l-13.453-7.766c-1.686-.972-4.402-.968-6.067 0l-6.285 3.653c-1.664.968-1.656 2.536.029 3.509l13.453 7.766c1.678.969 4.384.969 6.05 0l6.282-3.651c1.666-.968 1.668-2.541-.009-3.511z" fill="#33569A"/><path d="M173.151 203.253l-4.803-2.775c-1.685-.973-4.392-.973-6.058-.004l-6.292 3.656c-1.667.968-1.658 2.537.028 3.509l4.802 2.774c1.678.966 4.394.976 6.06.005l6.291-3.656c1.667-.969 1.649-2.54-.028-3.509z" fill="#C764A6"/><path d="M117.426 203.678l13.452 7.764c1.676.97 4.382.97 6.049 0l6.292-3.656c1.667-.968 1.656-2.536-.021-3.504l-13.451-7.768c-1.685-.972-4.392-.972-6.059-.002l-6.292 3.654c-1.665.972-1.657 2.538.03 3.512z" fill="#33569A"/><path d="M127.381 213.474l-13.452-7.764c-1.685-.977-4.401-.968-6.068 0l-6.284 3.651c-1.665.966-1.656 2.536.03 3.506l13.452 7.77c1.676.97 4.385.966 6.049 0l6.285-3.652c1.666-.968 1.667-2.542-.012-3.511z" fill="#339A7F"/><path d="M157.333 212.443l-4.802-2.771c-1.687-.976-4.392-.976-6.059-.008l-22.111 12.852c-1.666.965-1.658 2.536.03 3.508l4.802 2.773c1.678.967 4.392.971 6.059.004l22.109-12.848c1.667-.968 1.651-2.54-.028-3.51z" fill="#84C956"/></g><g><linearGradient id="i" x1=".5" y1="-2.585" x2=".5" y2=".462" gradientTransform="matrix(7.94 0 0 16.228 61.895 137.68)" gradientUnits="userSpaceOnUse"><stop offset="0%" stop-color="#fc0"/><stop offset="100%" stop-color="#fc8b00"/></linearGradient><path d="M61.895 142.247l.034 11.661 7.906-4.567-.034-11.661-7.906 4.567z" fill="url(#i)"/></g><g><linearGradient id="j" x1=".5" y1="-.323" x2=".5" y2=".991" gradientTransform="matrix(8.009 0 0 37.627 76.355 107.897)" gradientUnits="userSpaceOnUse"><stop offset="0%" stop-color="#385ea8"/><stop offset="100%" stop-color="#213763"/></linearGradient><path d="M76.355 112.465l.093 33.059 7.916-4.571-.093-33.056-7.916 4.568z" fill="url(#j)"/></g><g><linearGradient id="k" x1=".5" y1="-1.207" x2=".5" y2="1.429" gradientTransform="matrix(7.945 0 0 18.755 90.94 118.38)" gradientUnits="userSpaceOnUse"><stop offset="0%" stop-color="#fc0"/><stop offset="100%" stop-color="#fc8b00"/></linearGradient><path d="M90.94 122.943l.04 14.192 7.905-4.566-.038-14.189-7.907 4.563z" fill="url(#k)"/></g><g><linearGradient id="l" x1=".5" y1=".123" x2=".5" y2="1.437" gradientTransform="matrix(8.01 0 0 37.626 105.407 91.123)" gradientUnits="userSpaceOnUse"><stop offset="0%" stop-color="#385ea8"/><stop offset="100%" stop-color="#213763"/></linearGradient><path d="M105.407 95.696l.093 33.053 7.917-4.569-.094-33.057-7.916 4.573z" fill="url(#l)"/></g><g><linearGradient id="m" x1=".5" y1=".562" x2=".5" y2="1.441" gradientTransform="matrix(8.053 0 0 56.256 119.884 64.105)" gradientUnits="userSpaceOnUse"><stop offset="0%" stop-color="#fc0"/><stop offset="100%" stop-color="#fc8b00"/></linearGradient><path d="M119.884 68.669l.148 51.692 7.905-4.565-.146-51.691-7.907 4.564z" fill="url(#m)"/></g></g></svg>